<svg xmlns="http://www.w3.org/2000/svg" width="41.25" viewBox="0 0 41.25 30" height="30" version="1.0"><defs><clipPath id="a"><path d="M 0.449219 0 L 40.222656 0 L 40.222656 29.03125 L 0.449219 29.03125 Z M 0.449219 0"/></clipPath></defs><g clip-path="url(#a)"><path fill="#009B3A" d="M 40.355469 24.566406 C 40.355469 27.03125 38.371094 29.03125 35.921875 29.03125 L 4.894531 29.03125 C 2.449219 29.03125 0.464844 27.03125 0.464844 24.566406 L 0.464844 4.464844 C 0.464844 2 2.449219 0 4.894531 0 L 35.921875 0 C 38.371094 0 40.355469 2 40.355469 4.464844 Z M 40.355469 24.566406"/></g><path fill="#FEDF01" d="M 36.730469 14.515625 L 20.410156 26.9375 L 4.089844 14.515625 L 20.410156 2.09375 Z M 36.730469 14.515625"/><path fill="#002776" d="M 27.539062 14.429688 C 27.539062 14.90625 27.492188 15.375 27.402344 15.839844 C 27.308594 16.300781 27.171875 16.753906 26.992188 17.191406 C 26.8125 17.628906 26.59375 18.042969 26.332031 18.4375 C 26.070312 18.832031 25.773438 19.195312 25.441406 19.53125 C 25.109375 19.863281 24.75 20.164062 24.359375 20.425781 C 23.96875 20.691406 23.554688 20.914062 23.121094 21.09375 C 22.6875 21.273438 22.238281 21.410156 21.777344 21.503906 C 21.316406 21.597656 20.851562 21.640625 20.382812 21.640625 C 19.914062 21.640625 19.445312 21.597656 18.984375 21.503906 C 18.527344 21.410156 18.078125 21.273438 17.644531 21.09375 C 17.210938 20.914062 16.796875 20.691406 16.40625 20.425781 C 16.015625 20.164062 15.65625 19.863281 15.324219 19.53125 C 14.988281 19.195312 14.695312 18.832031 14.433594 18.4375 C 14.171875 18.042969 13.949219 17.628906 13.769531 17.191406 C 13.589844 16.753906 13.457031 16.300781 13.363281 15.839844 C 13.273438 15.375 13.226562 14.90625 13.226562 14.429688 C 13.226562 13.957031 13.273438 13.488281 13.363281 13.023438 C 13.457031 12.558594 13.589844 12.109375 13.769531 11.671875 C 13.949219 11.234375 14.171875 10.820312 14.433594 10.425781 C 14.695312 10.03125 14.988281 9.667969 15.324219 9.332031 C 15.65625 8.996094 16.015625 8.699219 16.40625 8.433594 C 16.796875 8.171875 17.210938 7.949219 17.644531 7.769531 C 18.078125 7.585938 18.527344 7.449219 18.984375 7.359375 C 19.445312 7.265625 19.914062 7.21875 20.382812 7.21875 C 20.851562 7.21875 21.316406 7.265625 21.777344 7.359375 C 22.238281 7.449219 22.6875 7.585938 23.121094 7.769531 C 23.554688 7.949219 23.96875 8.171875 24.359375 8.433594 C 24.75 8.699219 25.109375 8.996094 25.441406 9.332031 C 25.773438 9.667969 26.070312 10.03125 26.332031 10.425781 C 26.59375 10.820312 26.8125 11.234375 26.992188 11.671875 C 27.171875 12.109375 27.308594 12.558594 27.402344 13.023438 C 27.492188 13.488281 27.539062 13.957031 27.539062 14.429688 Z M 27.539062 14.429688"/><path fill="#CBE9D4" d="M 14.066406 11.039062 C 13.699219 11.734375 13.449219 12.496094 13.324219 13.300781 C 17.75 12.976562 23.757812 15.410156 26.335938 18.429688 C 26.78125 17.753906 27.113281 17 27.3125 16.191406 C 24.132812 13.058594 18.542969 11.023438 14.066406 11.039062 Z M 14.066406 11.039062"/><path fill="#88C9F9" d="M 13.761719 14.777344 L 14.867188 14.777344 L 14.867188 15.894531 L 13.761719 15.894531 Z M 14.867188 17.007812 L 15.976562 17.007812 L 15.976562 18.125 L 14.867188 18.125 Z M 14.867188 17.007812"/><path fill="#55ACEE" d="M 17.085938 14.777344 L 18.191406 14.777344 L 18.191406 15.894531 L 17.085938 15.894531 Z M 19.300781 15.894531 L 20.410156 15.894531 L 20.410156 17.007812 L 19.300781 17.007812 Z M 23.734375 18.125 L 24.839844 18.125 L 24.839844 19.242188 L 23.734375 19.242188 Z M 20.410156 19.242188 L 21.515625 19.242188 L 21.515625 20.359375 L 20.410156 20.359375 Z M 23.734375 12.542969 L 24.839844 12.542969 L 24.839844 13.660156 L 23.734375 13.660156 Z M 23.734375 12.542969"/><path fill="#3B88C3" d="M 21.515625 17.007812 L 22.625 17.007812 L 22.625 18.125 L 21.515625 18.125 Z M 21.515625 17.007812"/></svg>