<svg xmlns="http://www.w3.org/2000/svg" width="41.25" viewBox="0 0 41.25 30" height="30" version="1.0"><defs><clipPath id="a"><path d="M 0.300781 0 L 40.222656 0 L 40.222656 29.03125 L 0.300781 29.03125 Z M 0.300781 0"/></clipPath><clipPath id="b"><path d="M 0.300781 2 L 40.222656 2 L 40.222656 27 L 0.300781 27 Z M 0.300781 2"/></clipPath><clipPath id="c"><path d="M 0.300781 0 L 21 0 L 21 16 L 0.300781 16 Z M 0.300781 0"/></clipPath></defs><g clip-path="url(#a)"><path fill="#B22334" d="M 39.589844 2.234375 C 38.820312 0.902344 37.410156 0 35.773438 0 L 20.261719 0 L 20.261719 2.234375 Z M 0.320312 22.332031 L 40.203125 22.332031 L 40.203125 24.566406 L 0.320312 24.566406 Z M 20.261719 13.398438 L 40.203125 13.398438 L 40.203125 15.632812 L 20.261719 15.632812 Z M 20.261719 8.933594 L 40.203125 8.933594 L 40.203125 11.167969 L 20.261719 11.167969 Z M 0.320312 17.867188 L 40.203125 17.867188 L 40.203125 20.097656 L 0.320312 20.097656 Z M 4.75 29.03125 L 35.773438 29.03125 C 37.410156 29.03125 38.820312 28.128906 39.589844 26.800781 L 0.933594 26.800781 C 1.703125 28.128906 3.113281 29.03125 4.75 29.03125 Z M 20.261719 4.464844 L 40.203125 4.464844 L 40.203125 6.699219 L 20.261719 6.699219 Z M 20.261719 4.464844"/></g><g clip-path="url(#b)"><path fill="#EEE" d="M 0.394531 25.324219 C 0.414062 25.429688 0.433594 25.53125 0.460938 25.632812 C 0.488281 25.746094 0.523438 25.855469 0.5625 25.964844 C 0.660156 26.253906 0.78125 26.53125 0.929688 26.792969 L 0.933594 26.800781 L 39.589844 26.800781 L 39.589844 26.792969 C 39.742188 26.535156 39.859375 26.253906 39.960938 25.96875 C 39.996094 25.855469 40.035156 25.746094 40.0625 25.632812 C 40.089844 25.53125 40.109375 25.429688 40.128906 25.324219 C 40.171875 25.078125 40.203125 24.824219 40.203125 24.566406 L 0.320312 24.566406 C 0.320312 24.824219 0.351562 25.078125 0.394531 25.324219 Z M 0.320312 20.097656 L 40.203125 20.097656 L 40.203125 22.332031 L 0.320312 22.332031 Z M 0.320312 15.632812 L 0.320312 17.867188 L 40.203125 17.867188 L 40.203125 15.632812 Z M 20.261719 11.167969 L 40.203125 11.167969 L 40.203125 13.398438 L 20.261719 13.398438 Z M 20.261719 6.699219 L 40.203125 6.699219 L 40.203125 8.933594 L 20.261719 8.933594 Z M 0.320312 4.464844 C 0.320312 4.207031 0.351562 3.957031 0.394531 3.707031 C 0.351562 3.957031 0.320312 4.207031 0.320312 4.464844 Z M 0.933594 2.234375 L 0.929688 2.238281 Z M 0.460938 3.398438 C 0.488281 3.285156 0.527344 3.175781 0.5625 3.066406 C 0.527344 3.175781 0.492188 3.285156 0.460938 3.398438 Z M 20.261719 4.464844 L 40.203125 4.464844 C 40.203125 4.207031 40.171875 3.953125 40.128906 3.707031 C 40.109375 3.605469 40.089844 3.5 40.0625 3.402344 C 40.03125 3.285156 39.996094 3.175781 39.957031 3.0625 C 39.859375 2.777344 39.738281 2.496094 39.589844 2.238281 C 39.589844 2.238281 39.589844 2.234375 39.589844 2.234375 L 20.261719 2.234375 Z M 20.261719 4.464844"/></g><g clip-path="url(#c)"><path fill="#3C3B6E" d="M 20.261719 0 L 4.75 0 C 2.304688 0 0.320312 2 0.320312 4.464844 L 0.320312 15.632812 L 20.261719 15.632812 Z M 20.261719 0"/></g><path fill="#FFF" d="M 2.535156 3.042969 L 3.222656 3.546875 L 2.960938 4.355469 L 3.644531 3.855469 L 4.328125 4.355469 L 4.066406 3.546875 L 4.75 3.042969 L 3.90625 3.042969 L 3.644531 2.234375 L 3.382812 3.042969 Z M 4.753906 5.277344 L 5.4375 5.777344 L 5.175781 6.589844 L 5.859375 6.085938 L 6.542969 6.589844 L 6.28125 5.777344 L 6.96875 5.277344 L 6.121094 5.277344 L 5.859375 4.464844 L 5.597656 5.277344 Z M 9.183594 5.277344 L 9.867188 5.777344 L 9.605469 6.589844 L 10.289062 6.085938 L 10.976562 6.589844 L 10.714844 5.777344 L 11.398438 5.277344 L 10.550781 5.277344 L 10.289062 4.464844 L 10.03125 5.277344 Z M 13.617188 5.277344 L 14.300781 5.777344 L 14.039062 6.589844 L 14.722656 6.085938 L 15.40625 6.589844 L 15.144531 5.777344 L 15.832031 5.277344 L 14.984375 5.277344 L 14.722656 4.464844 L 14.460938 5.277344 Z M 4.753906 9.742188 L 5.4375 10.246094 L 5.175781 11.054688 L 5.859375 10.554688 L 6.542969 11.054688 L 6.28125 10.246094 L 6.96875 9.742188 L 6.121094 9.742188 L 5.859375 8.933594 L 5.597656 9.742188 Z M 9.183594 9.742188 L 9.867188 10.246094 L 9.605469 11.054688 L 10.289062 10.554688 L 10.976562 11.054688 L 10.714844 10.246094 L 11.398438 9.742188 L 10.550781 9.742188 L 10.289062 8.933594 L 10.03125 9.742188 Z M 13.617188 9.742188 L 14.300781 10.246094 L 14.039062 11.054688 L 14.722656 10.554688 L 15.40625 11.054688 L 15.144531 10.246094 L 15.832031 9.742188 L 14.984375 9.742188 L 14.722656 8.933594 L 14.460938 9.742188 Z M 6.96875 3.042969 L 7.652344 3.546875 L 7.390625 4.355469 L 8.074219 3.855469 L 8.761719 4.355469 L 8.5 3.546875 L 9.183594 3.042969 L 8.335938 3.042969 L 8.074219 2.234375 L 7.816406 3.042969 Z M 11.398438 3.042969 L 12.085938 3.546875 L 11.824219 4.355469 L 12.507812 3.855469 L 13.191406 4.355469 L 12.929688 3.546875 L 13.613281 3.042969 L 12.769531 3.042969 L 12.507812 2.234375 L 12.246094 3.042969 Z M 15.832031 3.042969 L 16.515625 3.546875 L 16.253906 4.355469 L 16.9375 3.855469 L 17.625 4.355469 L 17.363281 3.546875 L 18.046875 3.042969 L 17.199219 3.042969 L 16.9375 2.234375 L 16.679688 3.042969 Z M 2.535156 7.511719 L 3.222656 8.011719 L 2.960938 8.820312 L 3.644531 8.320312 L 4.328125 8.820312 L 4.066406 8.011719 L 4.75 7.511719 L 3.90625 7.511719 L 3.644531 6.699219 L 3.382812 7.511719 Z M 7.390625 8.820312 L 8.074219 8.320312 L 8.761719 8.820312 L 8.5 8.011719 L 9.183594 7.511719 L 8.335938 7.511719 L 8.074219 6.699219 L 7.816406 7.511719 L 6.96875 7.511719 L 7.652344 8.011719 Z M 11.398438 7.511719 L 12.085938 8.011719 L 11.824219 8.820312 L 12.507812 8.320312 L 13.191406 8.820312 L 12.929688 8.011719 L 13.613281 7.511719 L 12.769531 7.511719 L 12.507812 6.699219 L 12.246094 7.511719 Z M 15.832031 7.511719 L 16.515625 8.011719 L 16.253906 8.820312 L 16.9375 8.320312 L 17.625 8.820312 L 17.363281 8.011719 L 18.046875 7.511719 L 17.199219 7.511719 L 16.9375 6.699219 L 16.679688 7.511719 Z M 2.535156 11.976562 L 3.222656 12.476562 L 2.960938 13.289062 L 3.644531 12.789062 L 4.328125 13.289062 L 4.066406 12.476562 L 4.75 11.976562 L 3.90625 11.976562 L 3.644531 11.167969 L 3.382812 11.976562 Z M 7.390625 13.289062 L 8.074219 12.789062 L 8.761719 13.289062 L 8.5 12.476562 L 9.183594 11.976562 L 8.335938 11.976562 L 8.074219 11.167969 L 7.816406 11.976562 L 6.96875 11.976562 L 7.652344 12.476562 Z M 11.398438 11.976562 L 12.085938 12.476562 L 11.824219 13.289062 L 12.507812 12.789062 L 13.191406 13.289062 L 12.929688 12.476562 L 13.613281 11.976562 L 12.769531 11.976562 L 12.507812 11.167969 L 12.246094 11.976562 Z M 15.832031 11.976562 L 16.515625 12.476562 L 16.253906 13.289062 L 16.9375 12.789062 L 17.625 13.289062 L 17.363281 12.476562 L 18.046875 11.976562 L 17.199219 11.976562 L 16.9375 11.167969 L 16.679688 11.976562 Z M 15.832031 11.976562"/></svg>